<svg height="419" viewBox="0 0 903.81496 419" width="903.81496" xmlns="http://www.w3.org/2000/svg"><path d="m1002.29825 657.63462c-7.66862-.31841-14.65546-3.4134-17.8161-8.20809q-.22188-.3366-.41782-.68273c-1.15407-2.04287-1.5142-4.39169-.2526-6.40454s4.41342-3.54208 7.5786-3.22463 5.63632 2.842 4.32649 4.84032c-.29278-4.03819-.53206-8.28109 2.72379-11.79607a11.8971 11.8971 0 0 1 6.665-3.44471c6.56018-1.15377 10.91609 2.5554 11.78838 6.30113.64385 2.76482-.24562 5.57713-1.13059 8.31052 2.72833-3.22649 9.21772-4.662 14.18726-3.13827s7.72721 5.7944 6.02891 9.3367c-2.00047 4.17253-8.66851 6.32973-14.8625 7.46953-5.11486.94122-12.78441.89139-18.81882.64084z" fill="#f2f2f2" transform="translate(-148.09252 -240.5)"/><path d="m735.29825 657.63462c-7.66862-.31841-14.65546-3.4134-17.8161-8.20809q-.22188-.3366-.41782-.68273c-1.15407-2.04287-1.5142-4.39169-.2526-6.40454s4.41342-3.54208 7.5786-3.22463 5.63632 2.842 4.32649 4.84032c-.29278-4.03819-.53206-8.28109 2.72379-11.79607a11.8971 11.8971 0 0 1 6.665-3.44471c6.56018-1.15377 10.91609 2.5554 11.78838 6.30113.64385 2.76482-.24562 5.57713-1.13059 8.31052 2.72833-3.22649 9.21772-4.662 14.18726-3.13827s7.72721 5.7944 6.02891 9.3367c-2.00047 4.17253-8.66851 6.32973-14.8625 7.46953-5.11486.94122-12.78441.89139-18.81882.64084z" fill="#f2f2f2" transform="translate(-148.09252 -240.5)"/><path d="m489.59229 417h-55a16.51867 16.51867 0 0 1 -16.5-16.5v-103a16.51867 16.51867 0 0 1 16.5-16.5h55a16.51868 16.51868 0 0 1 16.5 16.5v103a16.51868 16.51868 0 0 1 -16.5 16.5z" fill="#f2f2f2" transform="translate(-148.09252 -240.5)"/><path d="m679.306 406.177h-12.259l-5.833-47.288 18.094.001z" fill="#ffb8b8"/><path d="m830.52529 658.56159-39.53052-.00147v-.5a15.38605 15.38605 0 0 1 15.38648-15.38623h.001l24.1438.001z" fill="#2f2e41" transform="translate(-148.09252 -240.5)"/><path d="m816.262 394.707-11.557 4.092-21.285-42.627 17.056-6.04z" fill="#ffb8b8"/><path d="m971.269 645.3652-37.26281 13.19639-.16693-.47131a15.38606 15.38606 0 0 1 9.36673-19.64037l.00092-.00033 22.7588-8.05979z" fill="#2f2e41" transform="translate(-148.09252 -240.5)"/><path d="m827.05741 630.80006a4.61332 4.61332 0 0 1 -.82031-.07421l-14.99194-2.72559a4.52108 4.52108 0 0 1 -3.69751-4.33691c-2.1792-100.91407 8.53467-168.72852 31.8435-217.33594a4.47342 4.47342 0 0 1 4.69092-2.48145l53.91162 7.78321a4.50521 4.50521 0 0 1 3.82788 3.94726l4.75391 41.90332a3.54563 3.54563 0 0 0 .14185.666l51.68921 154.86914a4.5194 4.5194 0 0 1 -2.866 5.63086l-13.96848 4.65625a4.52335 4.52335 0 0 1 -5.44824-2.25684l-69.91821-131.83689a1.50017 1.50017 0 0 0 -2.80689.34961l-31.96118 137.70512a4.48168 4.48168 0 0 1 -4.38013 3.53706z" fill="#2f2e41" transform="translate(-148.09252 -240.5)"/><path d="m784.44969 324.5973a10.52739 10.52739 0 0 1 .2393 1.64013l42.95745 24.782 10.44141-6.01094 11.13115 14.57227-17.45033 12.43754a8 8 0 0 1 -9.59819-.23384l-44.29648-34.94583a10.4971 10.4971 0 1 1 6.57573-12.24133z" fill="#ffb8b8" transform="translate(-148.09252 -240.5)"/><path d="m828.23667 348.54228a4.49518 4.49518 0 0 1 2.21126-3.025l19.713-11.02278a12.49741 12.49741 0 0 1 15.32664 19.74413l-15.71732 16.32122a4.5 4.5 0 0 1 -6.80392-.37268l-13.88374-17.994a4.495 4.495 0 0 1 -.84592-3.65089z" fill="#6c63ff" transform="translate(-148.09252 -240.5)"/><circle cx="726.04977" cy="57.06582" fill="#ffb8b8" r="24.56103"/><g transform="translate(-148.09252 -240.5)"><path d="m898.05864 416.86842a4.49986 4.49986 0 0 1 -.728-.05957l-53.15335-8.71385a4.49988 4.49988 0 0 1 -3.67407-5.374l2.58593-12.1914c-1.32373-1.97461-12.10254-19.14551 1.02564-35.27442a22.01039 22.01039 0 0 1 20.43335-22.92187l27.46924-2.08692a22.12706 22.12706 0 0 1 23.02172 27.88477l-12.593 55.2373a4.51031 4.51031 0 0 1 -4.38746 3.49996z" fill="#6c63ff"/><path d="m947.6947 463.05847a10.74272 10.74272 0 0 0 -4.27021-15.90952l-30.26349-93.04686-17.53839 8.322 33.11316 90.59865a10.80091 10.80091 0 0 0 18.95894 10.03573z" fill="#ffb8b8"/><path d="m919.855 369.59337-23.28842 7.035a4.81687 4.81687 0 0 1 -6.15823-3.90862l-3.5355-23.995a13.37737 13.37737 0 0 1 25.63415-7.66175l10.31233 21.866a4.81689 4.81689 0 0 1 -2.96431 6.66438z" fill="#6c63ff"/><path d="m850.26787 298.51445a30.44348 30.44348 0 0 0 32.21073-6.76432c-2.57623 6.80639-1.856 35.674-1.856 35.674s22.84668-10.84668 25.94629-12.74359c18.30713-11.20417-6.9419-59.94287-27.94629-52.25641-3.55762 1.30188-6.529 2.83372-7.96807 6.33788-3.13633-3.86875-9.07321-4.70786-13.63995-2.72072s-7.81312 6.29343-9.55868 10.95785a27.4066 27.4066 0 0 0 1.993 23.11342z"/><path d="m743.09252 240.5h-562a33.03244 33.03244 0 0 0 -33 33v154a33.03244 33.03244 0 0 0 33 33h562a33.03244 33.03244 0 0 0 33-33v-154a33.03244 33.03244 0 0 0 -33-33zm31 187a31.03964 31.03964 0 0 1 -31 31h-562a31.03964 31.03964 0 0 1 -31-31v-154a31.03964 31.03964 0 0 1 31-31h562a31.03964 31.03964 0 0 1 31 31z" fill="#3f3d56"/><path d="m236.84252 386a12 12 0 1 1 12-12 12.01375 12.01375 0 0 1 -12 12zm0-22a10 10 0 1 0 10 10 10.0113 10.0113 0 0 0 -10-10z" fill="#3f3d56"/><path d="m236.44872 359a1 1 0 0 1 -1-1v-11.5a1 1 0 0 1 2 0v11.5a1 1 0 0 1 -1 1z" fill="#3f3d56"/><path d="m220.84252 374.60645h-11.5a1 1 0 0 1 0-2h11.5a1 1 0 1 1 0 2z" fill="#3f3d56"/><path d="m262.84252 374.60645h-11.5a1 1 0 0 1 0-2h11.5a1 1 0 0 1 0 2z" fill="#3f3d56"/><path d="m251.0266 363.67236a1 1 0 0 1 -.69629-1.71777l4.81592-4.67236a1 1 0 0 1 1.39258 1.43554l-4.81592 4.67237a.99626.99626 0 0 1 -.69629.28222z" fill="#3f3d56"/><path d="m221.65844 363.67236a.99668.99668 0 0 1 -.69629-.28222l-4.81592-4.67237a1 1 0 1 1 1.39258-1.43554l4.81592 4.67236a1 1 0 0 1 -.69629 1.71777z" fill="#3f3d56"/><path d="m217.84252 391a1.00025 1.00025 0 0 1 -.71753-1.69678l4.81592-4.95947a1.00017 1.00017 0 0 1 1.43506 1.39355l-4.81592 4.95948a.99855.99855 0 0 1 -.71753.30322z" fill="#3f3d56"/><path d="m256.84252 392a.995.995 0 0 1 -.71558-.30176l-5.81591-5.95947a.99979.99979 0 1 1 1.43115-1.39648l5.81592 5.95947a.99975.99975 0 0 1 -.71558 1.69824z" fill="#3f3d56"/><path d="m236.44872 402a1 1 0 0 1 -1-1v-11.5a1 1 0 0 1 2 0v11.5a1 1 0 0 1 -1 1z" fill="#3f3d56"/><path d="m367.25609 393h-33.38183a13.00186 13.00186 0 0 1 0-26h2.553a15.70676 15.70676 0 0 1 14.13794-9 15.866 15.866 0 0 1 15.697 15h.99389a10.00136 10.00136 0 0 1 0 20zm-33.38183-24a11.00221 11.00221 0 0 0 0 22h33.38183a8.00171 8.00171 0 0 0 0-16h-1.96362a1 1 0 0 1 -1-1 13.88125 13.88125 0 0 0 -13.72729-14 13.72466 13.72466 0 0 0 -12.57471 8.39453 1.00022 1.00022 0 0 1 -.91895.60547z" fill="#3f3d56"/><path d="m478.76391 374.05664-.7793-1.8418a10.002 10.002 0 1 0 -13.14038-13.02684l-1.84863-.7627a12.0019 12.0019 0 1 1 15.76831 15.63135z" fill="#3f3d56"/><path d="m480.25609 393h-33.38183a13.00186 13.00186 0 0 1 0-26h2.553a15.70676 15.70676 0 0 1 14.13794-9 15.866 15.866 0 0 1 15.697 15h.99389a10.00136 10.00136 0 0 1 0 20zm-33.38183-24a11.00221 11.00221 0 0 0 0 22h33.38183a8.00171 8.00171 0 0 0 0-16h-1.96362a1 1 0 0 1 -1-1 13.88125 13.88125 0 0 0 -13.72729-14 13.72466 13.72466 0 0 0 -12.57471 8.39453 1.00022 1.00022 0 0 1 -.91895.60547z" fill="#3f3d56"/><path d="m593.25609 388h-4.01391a1 1 0 0 1 0-2h4.01391a8.00171 8.00171 0 0 0 0-16h-1.96362a1 1 0 0 1 -1-1 13.88125 13.88125 0 0 0 -13.72729-14 13.72466 13.72466 0 0 0 -12.57471 8.39453 1.00022 1.00022 0 0 1 -.91895.60547h-3.19726a11.00221 11.00221 0 0 0 0 22h3.1001a1 1 0 0 1 0 2h-3.1001a13.00186 13.00186 0 0 1 0-26h2.553a15.70676 15.70676 0 0 1 14.13794-9 15.866 15.866 0 0 1 15.697 15h.99389a10.00136 10.00136 0 0 1 0 20z" fill="#3f3d56"/><path d="m576.39965 392.31689a1 1 0 0 1 -1-1v-11.5a1 1 0 1 1 2 0v11.5a1.00005 1.00005 0 0 1 -1 1z" fill="#3f3d56"/><path d="m569.39965 398.31689a1 1 0 0 1 -1-1v-11.5a1 1 0 1 1 2 0v11.5a1.00005 1.00005 0 0 1 -1 1z" fill="#3f3d56"/><path d="m583.39965 401.31689a1 1 0 0 1 -1-1v-11.5a1 1 0 1 1 2 0v11.5a1.00005 1.00005 0 0 1 -1 1z" fill="#3f3d56"/><path d="m706.25609 388h-4.01391a1 1 0 0 1 0-2h4.01391a8.00171 8.00171 0 0 0 0-16h-1.96362a1 1 0 0 1 -1-1 13.88125 13.88125 0 0 0 -13.72729-14 13.72466 13.72466 0 0 0 -12.57471 8.39453 1.00022 1.00022 0 0 1 -.91895.60547h-3.19726a11.00221 11.00221 0 0 0 0 22h3.1001a1 1 0 1 1 0 2h-3.1001a13.00186 13.00186 0 0 1 0-26h2.553a15.70676 15.70676 0 0 1 14.13794-9 15.866 15.866 0 0 1 15.697 15h.99389a10.00136 10.00136 0 0 1 0 20z" fill="#3f3d56"/></g><circle cx="539.75" cy="142.75" fill="#3f3d56" r="2.25"/><circle cx="547.25" cy="145.75" fill="#3f3d56" r="2.25"/><circle cx="534.75" cy="149.25" fill="#3f3d56" r="2.25"/><circle cx="542.75" cy="154.25" fill="#3f3d56" r="2.25"/><path d="m265.09252 312h-58a8 8 0 0 1 0-16h58a8 8 0 0 1 0 16z" fill="#6c63ff" transform="translate(-148.09252 -240.5)"/><path d="m378.09252 312h-58a8 8 0 1 1 0-16h58a8 8 0 0 1 0 16z" fill="#6c63ff" transform="translate(-148.09252 -240.5)"/><path d="m491.09252 312h-58a8 8 0 1 1 0-16h58a8 8 0 0 1 0 16z" fill="#6c63ff" transform="translate(-148.09252 -240.5)"/><path d="m604.09252 312h-58a8 8 0 0 1 0-16h58a8 8 0 0 1 0 16z" fill="#6c63ff" transform="translate(-148.09252 -240.5)"/><path d="m717.09252 312h-58a8 8 0 0 1 0-16h58a8 8 0 0 1 0 16z" fill="#6c63ff" transform="translate(-148.09252 -240.5)"/><path d="m290.09252 406a1 1 0 0 1 -1-1v-76a1 1 0 0 1 2 0v76a1 1 0 0 1 -1 1z" fill="#e6e6e6" transform="translate(-148.09252 -240.5)"/><path d="m403.09252 405a1 1 0 0 1 -1-1v-76a1 1 0 0 1 2 0v76a1 1 0 0 1 -1 1z" fill="#e6e6e6" transform="translate(-148.09252 -240.5)"/><path d="m522.09252 405a1 1 0 0 1 -1-1v-76a1 1 0 0 1 2 0v76a1 1 0 0 1 -1 1z" fill="#e6e6e6" transform="translate(-148.09252 -240.5)"/><path d="m635.09252 405a1 1 0 0 1 -1-1v-76a1 1 0 0 1 2 0v76a1 1 0 0 1 -1 1z" fill="#e6e6e6" transform="translate(-148.09252 -240.5)"/><path d="m1050.90748 659.5h-381a1 1 0 1 1 0-2h381a1 1 0 0 1 0 2z" fill="#3f3d56" transform="translate(-148.09252 -240.5)"/></svg>